<svg xmlns="http://www.w3.org/2000/svg" viewBox="0 0 42.51 42.51"><defs><style>.cls-1{fill:#009ee2;}.cls-2{fill:#fff;fill-rule:evenodd;}</style></defs><g id="Calque_2" data-name="Calque 2"><g id="Calque_1-2" data-name="Calque 1"><rect class="cls-1" width="42.51" height="42.51" rx="21.26"/><path class="cls-2" d="M29.29,15.26V27.34a1.27,1.27,0,0,1-1.35,1.26V30a1.29,1.29,0,0,1-1.34,1.34H25.25A1.26,1.26,0,0,1,24,30V28.6H18.61V30a1.33,1.33,0,0,1-1.35,1.34H15.92A1.28,1.28,0,0,1,14.58,30V28.6a1.31,1.31,0,0,1-1.35-1.26V15.26a4.05,4.05,0,0,1,4-4h8a4.06,4.06,0,0,1,4,4ZM12.36,16.6h.71v4h-.71a.68.68,0,0,1-.63-.63V17.23a.68.68,0,0,1,.63-.63Zm17.8,0h-.72v4h.72a.69.69,0,0,0,.63-.63V17.23a.63.63,0,0,0-.63-.63Zm-2.22-1.34H14.58v8H27.94Zm-9.33-1.35H24l-.64-1.34H19.16ZM15.13,25h1.58a.56.56,0,0,1,.63.54v1.11a.56.56,0,0,1-.63.55H15.13a.56.56,0,0,1-.64-.55V25.52c0-.31.24-.54.64-.54Zm10.68,0h1.66a.53.53,0,0,1,.55.54v1.11a.53.53,0,0,1-.55.55H25.81a.61.61,0,0,1-.64-.55V25.52a.61.61,0,0,1,.64-.54Z"/></g></g></svg>